<?xml version="1.0" standalone="no"?>
<!DOCTYPE svg PUBLIC "-//W3C//DTD SVG 20010904//EN"
 "http://www.w3.org/TR/2001/REC-SVG-20010904/DTD/svg10.dtd">
<svg version="1.0" xmlns="http://www.w3.org/2000/svg"
 width="128.000000pt" height="128.000000pt" viewBox="0 0 128.000000 128.000000"
 preserveAspectRatio="xMidYMid meet">
<metadata>
Created by potrace 1.14, written by Peter Selinger 2001-2017
</metadata>
<g transform="translate(0.000000,128.000000) scale(0.100000,-0.100000)"
fill="#000000" stroke="none">
<path d="M416 1266 c-113 -42 -168 -176 -118 -287 20 -45 320 -359 342 -359
22 0 321 314 341 357 66 142 -40 303 -199 303 -36 0 -97 -23 -123 -46 -16 -14
-21 -13 -57 11 -49 33 -130 42 -186 21z m151 -49 c16 -9 35 -23 42 -31 8 -9
21 -16 31 -16 10 0 23 7 31 16 23 28 71 46 121 46 64 0 122 -37 149 -95 43
-96 22 -137 -158 -320 l-142 -144 -143 143 c-148 150 -168 176 -175 231 -18
130 127 230 244 170z"/>
<path d="M473 1185 c-7 -21 5 -35 33 -35 17 0 24 5 24 20 0 11 -3 20 -7 21 -5
0 -16 2 -26 4 -10 2 -21 -3 -24 -10z"/>
<path d="M384 1135 c-21 -33 -25 -83 -9 -123 14 -31 38 -42 50 -22 3 5 0 22
-8 37 -15 29 -9 72 13 98 7 8 9 19 5 25 -11 17 -34 11 -51 -15z"/>
<path d="M32 763 c-51 -130 -37 -293 35 -425 57 -104 181 -196 292 -216 64
-12 193 -7 221 8 17 9 20 21 20 78 0 273 107 396 380 436 57 9 126 32 176 60
55 31 58 29 72 -53 45 -263 -112 -525 -354 -590 -48 -13 -184 -25 -184 -16 0
12 34 72 68 120 51 71 127 150 195 202 56 43 70 67 45 76 -30 10 -199 -144
-273 -248 -47 -67 -95 -153 -95 -172 0 -20 45 -26 139 -20 145 10 253 57 347
151 111 112 171 277 161 446 -5 79 -29 174 -46 185 -4 2 -48 -16 -97 -41 -64
-32 -117 -50 -190 -64 -155 -31 -248 -77 -303 -152 -26 -35 -30 -37 -35 -20
-11 32 -99 115 -149 140 -26 13 -89 32 -141 42 -103 21 -162 42 -218 77 -48
29 -53 29 -66 -4z m90 -59 c28 -14 99 -36 157 -48 130 -28 184 -52 234 -102
58 -58 81 -108 68 -147 -11 -35 -24 -115 -25 -160 -1 -27 -1 -27 -36 15 -91
113 -253 246 -276 227 -19 -15 -9 -29 49 -71 90 -65 251 -238 235 -253 -8 -8
-103 -9 -153 -1 -219 35 -371 285 -320 529 4 20 9 37 11 37 3 0 28 -12 56 -26z"/>
</g>
</svg>
